<?xml version="1.0" encoding="iso-8859-1"?>
<!-- Generator: Adobe Illustrator 19.0.0, SVG Export Plug-In . SVG Version: 6.00 Build 0)  -->
<svg version="1.1" id="Layer_1" xmlns="http://www.w3.org/2000/svg" xmlns:xlink="http://www.w3.org/1999/xlink" x="0px" y="0px"
	 viewBox="0 0 512 512" style="enable-background:new 0 0 512 512;" xml:space="preserve">
<g>
	<g>
		<path d="M449.783,120.638l-50.821-50.82c-3.006-3.006-7.879-3.006-10.883,0c-3.006,3.006-3.006,7.879,0,10.883l5.742,5.742
			c-13.846,12.152-25.5,16.053-37.396,19.193l-27.019-27.019c10.987-3.495,22.607-8.876,35.862-20.726L373.377,66
			c3.006,3.007,7.879,3.006,10.883,0c3.006-3.006,3.006-7.879,0-10.883L331.399,2.254C329.957,0.811,327.999,0,325.958,0
			s-3.999,0.811-5.442,2.254c-18.099,18.099-32.262,21.721-47.256,25.557c-16.343,4.181-33.243,8.504-54.325,29.586
			c-21.081,21.081-25.404,37.982-29.585,54.324c-3.836,14.994-7.459,29.157-25.557,47.256c-4.406,4.406-8.672,8.068-13.042,11.193
			c-3.457,2.473-4.254,7.28-1.781,10.738c1.502,2.1,3.867,3.219,6.266,3.219c1.549,0,3.115-0.467,4.471-1.437
			c3.172-2.269,6.277-4.763,9.386-7.541l28.551,28.551c-13.848,12.155-25.504,16.057-37.4,19.196l-27.039-27.039
			c0.83-0.265,1.656-0.521,2.496-0.811c4.018-1.385,6.153-5.766,4.767-9.784c-1.385-4.019-5.766-6.152-9.784-4.767
			c-4.7,1.62-9.287,2.794-14.144,4.037c-16.342,4.179-33.242,8.503-54.323,29.584c-3.006,3.006-3.006,7.879,0,10.883
			l284.751,284.747c1.502,1.502,3.472,2.254,5.442,2.254c1.969,0,3.939-0.751,5.442-2.254l19.589-19.589
			c3.006-3.006,3.006-7.879,0-10.883l-64.84-64.84c-3.006-3.006-7.879-3.006-10.883,0c-3.006,3.006-3.006,7.879,0,10.883
			l59.398,59.398l-8.705,8.705L197.103,338.113c3.4-2.983,6.668-5.471,9.84-7.57l78.869,78.869c1.502,1.502,3.472,2.254,5.442,2.254
			s3.939-0.751,5.442-2.254c3.006-3.006,3.006-7.879,0-10.883l-75.427-75.426c5.885-2.307,11.614-3.776,17.468-5.273
			c16.342-4.18,33.242-8.503,54.323-29.584c21.082-21.081,25.405-37.982,29.586-54.325c3.836-14.994,7.459-29.157,25.557-47.256
			c18.099-18.099,32.261-21.721,47.255-25.557c16.343-4.181,33.243-8.504,54.325-29.586
			C452.789,128.517,452.789,123.644,449.783,120.638z M339.32,110.298c-10.989,3.495-22.612,8.875-35.87,20.727l-28.552-28.552
			c13.849-12.154,25.505-16.054,37.403-19.194L339.32,110.298z M244.819,150.758c3.14-11.897,7.041-23.553,19.195-37.401
			l28.553,28.552c-11.852,13.257-17.234,24.88-20.729,35.868L244.819,150.758z M267.177,194.883
			c-3.139,11.895-7.039,23.55-19.188,37.395l-28.553-28.553c11.847-13.254,17.227-24.874,20.722-35.861L267.177,194.883z
			 M325.81,18.432l28.55,28.551c-13.846,12.152-25.501,16.053-37.396,19.193l-27.018-27.018
			C300.933,35.661,312.554,30.282,325.81,18.432z M272.84,43.817l27.019,27.019c-10.989,3.495-22.612,8.876-35.869,20.727
			l-28.553-28.552C249.286,50.858,260.942,46.957,272.84,43.817z M224.554,73.895l28.553,28.552
			c-11.852,13.257-17.234,24.88-20.729,35.868l-27.019-27.019C208.497,99.399,212.399,87.743,224.554,73.895z M179.976,164.263
			c11.846-13.254,17.226-24.875,20.721-35.861l27.019,27.019c-3.139,11.895-7.039,23.549-19.188,37.394L179.976,164.263z
			 M208.553,214.608l28.553,28.553c-13.848,12.155-25.504,16.057-37.4,19.196l-27.019-27.019
			C183.674,231.843,195.296,226.46,208.553,214.608z M78.713,219.727c13.851-12.158,25.507-16.049,37.407-19.189l27.018,27.018
			c-10.989,3.495-22.611,8.875-35.869,20.727L78.713,219.727z M118.178,259.192c13.849-12.154,25.505-16.054,37.403-19.194
			l27.019,27.02c-10.989,3.495-22.611,8.875-35.869,20.727L118.178,259.192z M186.19,327.205l-28.55-28.55
			c13.849-12.154,25.505-16.054,37.403-19.194l27.018,27.018C211.071,309.973,199.448,315.352,186.19,327.205z M239.167,301.818
			l-27.018-27.018c10.988-3.495,22.61-8.877,35.866-20.73l28.552,28.552C262.719,294.776,251.064,298.679,239.167,301.818z
			 M287.45,271.737l-28.552-28.552c11.847-13.255,17.227-24.875,20.722-35.861l27.019,27.019
			C303.5,246.239,299.598,257.893,287.45,271.737z M311.299,217.238l-27.019-27.019c3.14-11.897,7.041-23.553,19.195-37.402
			l28.553,28.553C320.177,194.627,314.795,206.25,311.299,217.238z M342.912,170.486l-28.552-28.552
			c13.849-12.154,25.506-16.054,37.403-19.194l27.019,27.019C367.793,153.254,356.169,158.635,342.912,170.486z M395.887,145.097
			l-27.019-27.019c10.987-3.495,22.607-8.876,35.862-20.726l28.556,28.557C419.438,138.064,407.784,141.957,395.887,145.097z"/>
	</g>
</g>
<g>
</g>
<g>
</g>
<g>
</g>
<g>
</g>
<g>
</g>
<g>
</g>
<g>
</g>
<g>
</g>
<g>
</g>
<g>
</g>
<g>
</g>
<g>
</g>
<g>
</g>
<g>
</g>
<g>
</g>
</svg>
