<?xml version="1.0" encoding="UTF-8" standalone="no"?>
<!-- Created with Serif DrawPlus 12,0,4,27 (May 24, 08:37:51) (http://www.serif.com) -->
<svg version="1.1" xmlns="http://www.w3.org/2000/svg" xmlns:xlink="http://www.w3.org/1999/xlink" width="793.627" height="703.181">
	<defs>
		<linearGradient id="grad_dp_001" gradientUnits="userSpaceOnUse" x1="1.032" y1="451.705" x2="790.643" y2="462.304">
			<stop offset="0" stop-color="#13ebb5"/>
			<stop offset="1" stop-color="#137feb"/>
		</linearGradient>
		<linearGradient id="grad_dp_002" gradientUnits="userSpaceOnUse" x1="1.032" y1="451.705" x2="790.643" y2="462.304">
			<stop offset="0" stop-color="#13ebb5"/>
			<stop offset="1" stop-color="#137feb"/>
		</linearGradient>
		<linearGradient id="grad_dp_003" gradientUnits="userSpaceOnUse" x1="1.032" y1="451.705" x2="790.643" y2="462.304">
			<stop offset="0" stop-color="#13ebb5"/>
			<stop offset="1" stop-color="#137feb"/>
		</linearGradient>
	</defs>
	<g id="dp_group001" transform="matrix(1,0,0,1,0,-209.675)">
		<g id="dp_group002">
			<path id="dp_path003" fill="url(#grad_dp_001)" fill-rule="evenodd" d="M 351.515,373.427 L 266.503,288.413 C 250.772,272.681 225.173,272.681 209.441,288.413 L 175.8,322.053 C 160.069,337.785 160.069,363.384 175.8,379.115 L 260.812,464.127 C 268.68,471.995 279.009,475.925 289.344,475.925 C 299.675,475.925 310.009,471.991 317.873,464.127 L 351.515,430.488 C 367.245,414.756 367.245,389.157 351.515,373.427 Z M 335.54,414.512 L 301.899,448.152 C 298.544,451.505 294.085,453.353 289.344,453.353 C 284.6,453.353 280.141,451.505 276.787,448.152 L 191.776,363.14 C 184.852,356.217 184.852,344.952 191.776,338.029 L 225.416,304.389 C 228.877,300.928 233.425,299.196 237.973,299.196 C 242.52,299.196 247.067,300.928 250.528,304.388 L 335.54,389.401 C 338.892,392.756 340.74,397.213 340.74,401.956 C 340.74,406.7 338.892,411.157 335.54,414.512 Z "/>
		</g>
		<g id="dp_group004">
			<path id="dp_path005" fill="url(#grad_dp_002)" fill-rule="evenodd" d="M 248.496,476.445 L 163.483,391.432 C 147.751,375.7 122.155,375.7 106.423,391.432 L 72.7813,425.072 C 57.0507,440.804 57.0507,466.403 72.7813,482.133 L 157.793,567.147 C 165.659,575.013 175.991,578.945 186.324,578.945 C 196.656,578.945 206.989,575.013 214.855,567.147 L 248.496,533.507 C 264.227,517.775 264.227,492.176 248.496,476.445 Z M 232.521,517.531 L 198.88,551.171 C 191.957,558.093 180.692,558.092 173.768,551.171 L 88.7573,466.157 C 85.404,462.803 83.556,458.344 83.556,453.603 C 83.556,448.86 85.4027,444.4 88.7573,441.048 L 122.397,407.407 C 125.859,403.945 130.407,402.215 134.953,402.215 S 144.047,403.945 147.508,407.407 L 232.521,492.42 C 239.444,499.343 239.444,510.608 232.521,517.531 Z "/>
		</g>
		<g id="dp_group006">
			<path id="dp_path007" fill="url(#grad_dp_003)" fill-rule="evenodd" d="M 770.521,426.652 L 663.536,319.667 C 647.463,303.595 625.231,295.208 602.552,296.644 C 597.291,296.98 592.127,297.857 587.116,299.2 C 568.788,285.216 546.624,272.439 522.359,262.035 C 486.281,246.565 449.591,238.045 419.041,238.045 C 419.036,238.045 419.032,238.045 419.029,238.045 C 414.809,238.045 410.767,238.223 406.888,238.549 C 397.9,228.192 385.103,221.232 370.66,219.861 L 267.456,210.065 C 240.985,207.553 215.027,216.895 196.229,235.693 L 88.244,343.679 C 83.832,348.089 83.832,355.243 88.244,359.655 C 92.6533,364.064 99.8067,364.064 104.219,359.655 L 212.204,251.668 C 226.223,237.651 245.583,230.68 265.321,232.556 L 368.525,242.352 C 383.9,243.812 396.119,256.031 397.579,271.405 L 403.109,329.684 C 403.005,329.591 402.9,329.499 402.795,329.404 C 401.857,328.565 400.931,327.724 400.025,326.88 C 399.228,326.139 398.444,325.395 397.675,324.649 C 397.313,324.297 396.953,323.947 396.597,323.593 C 395.512,322.52 394.445,321.447 393.417,320.368 C 392.519,319.421 391.659,318.481 390.816,317.541 C 390.615,317.316 390.415,317.093 390.217,316.871 C 389.42,315.968 388.643,315.069 387.899,314.175 C 387.732,313.975 387.575,313.776 387.411,313.576 C 386.825,312.861 386.257,312.151 385.707,311.443 C 385.477,311.148 385.245,310.852 385.021,310.559 C 384.424,309.772 383.845,308.987 383.291,308.209 C 383.016,307.823 382.755,307.441 382.491,307.059 C 382.288,306.763 382.092,306.469 381.895,306.177 C 388.345,292.741 386.048,276.124 374.927,265.004 C 360.851,250.928 337.947,250.927 323.868,265.004 C 309.791,279.081 309.791,301.985 323.868,316.063 C 330.905,323.1 340.153,326.619 349.397,326.619 C 355.051,326.619 360.699,325.288 365.848,322.656 C 369.083,327.053 372.815,331.491 377.049,335.94 C 385.253,344.563 395.053,352.961 406.073,360.927 L 407.373,374.609 C 409.247,394.344 402.28,413.707 388.26,427.727 L 205.864,610.123 C 201.196,614.791 194.991,617.361 188.389,617.361 S 175.584,614.791 170.916,610.123 L 29.8053,469.013 C 25.1387,464.345 22.568,458.14 22.568,451.539 S 25.1387,438.733 29.8053,434.065 L 52.0373,411.833 C 56.4493,407.424 56.4493,400.271 52.0373,395.859 C 47.6267,391.449 40.4747,391.449 36.0627,395.859 L 13.832,418.088 C -4.61067,436.531 -4.61067,466.54 13.832,484.985 L 154.943,626.095 C 163.876,635.029 175.756,639.951 188.391,639.951 S 212.907,635.031 221.84,626.095 L 404.237,443.699 C 422.089,425.844 431.392,401.531 430.133,376.463 C 441.271,382.911 453.181,388.901 465.664,394.253 C 472.683,397.264 479.724,400.001 486.74,402.473 L 423.249,484.54 C 401.541,512.599 401.461,551.355 421.612,579.389 L 369.476,631.524 C 363.611,637.391 361.16,646.049 363.08,654.121 C 363.199,654.617 363.048,655.151 362.687,655.513 L 325.065,693.135 C 323.564,694.636 322.303,696.351 321.312,698.233 L 300.129,738.581 L 262.115,758.232 C 258.092,760.313 254.792,763.705 252.824,767.785 L 237.916,798.699 L 192.655,827.051 C 187.903,830.025 184.772,834.921 184.061,840.48 L 177.487,891.851 C 176.749,897.617 178.684,903.284 182.795,907.393 C 186.331,910.929 191.017,912.855 195.928,912.855 C 196.727,912.855 197.531,912.803 198.339,912.701 L 249.711,906.127 C 255.267,905.415 260.161,902.285 263.139,897.535 L 291.491,852.273 L 322.403,837.364 C 326.483,835.397 329.876,832.095 331.957,828.072 L 351.608,790.06 L 391.957,768.876 C 393.841,767.887 395.557,766.624 397.055,765.125 L 434.675,727.504 C 435.043,727.137 435.565,726.988 436.067,727.111 C 444.141,729.029 452.8,726.579 458.664,720.713 L 510.795,668.583 C 524.519,678.448 540.805,683.475 557.157,683.472 C 574.208,683.472 591.324,678.023 605.647,666.941 L 666.069,620.195 C 671.003,616.377 671.908,609.283 668.092,604.349 C 664.275,599.416 657.18,598.508 652.245,602.325 L 591.824,649.072 C 569.643,666.231 538.12,664.5 517.932,645.213 C 517.915,645.199 517.9,645.18 517.885,645.164 L 517.431,644.735 C 517.284,644.596 517.135,644.46 516.992,644.316 L 445.875,573.199 C 445.735,573.057 445.599,572.912 445.463,572.768 L 445.017,572.299 C 445.005,572.285 444.993,572.275 444.98,572.263 C 425.693,552.076 423.959,520.548 441.119,498.367 L 509.776,409.621 C 530.724,415.249 550.928,418.245 568.981,418.245 C 568.984,418.245 568.991,418.245 568.993,418.245 C 574.363,418.245 579.459,417.976 584.273,417.449 L 674.443,507.617 C 680.979,514.152 689.563,517.42 698.145,517.42 C 706.729,517.42 715.312,514.152 721.848,507.617 C 734.917,494.548 734.917,473.284 721.848,460.215 L 629.977,368.343 C 623.647,362.012 615.228,358.525 606.275,358.525 S 588.903,362.012 582.572,368.343 C 576.241,374.673 572.753,383.092 572.753,392.045 C 572.753,393.237 572.824,394.419 572.947,395.589 C 571.649,395.628 570.335,395.655 568.991,395.655 C 568.985,395.655 568.984,395.655 568.98,395.655 C 555.467,395.655 540.511,393.751 524.851,390.136 L 562.841,341.028 C 572.779,328.181 587.775,320.223 603.983,319.193 C 620.195,318.159 636.076,324.159 647.56,335.643 L 754.545,442.628 C 766.029,454.115 772.025,469.996 770.995,486.205 C 769.965,502.413 762.007,517.411 749.16,527.347 L 712.657,555.587 C 707.723,559.405 706.817,566.499 710.635,571.433 C 714.451,576.367 721.544,577.272 726.48,573.456 L 762.983,545.216 C 780.96,531.308 792.097,510.321 793.54,487.639 C 794.985,464.952 786.593,442.725 770.521,426.652 Z M 349.399,304.043 C 345.789,304.043 342.396,302.636 339.843,300.084 C 337.291,297.531 335.885,294.137 335.885,290.529 S 337.291,283.527 339.843,280.975 C 342.396,278.424 345.789,277.017 349.399,277.017 C 349.96,277.017 350.513,277.064 351.061,277.131 C 349.791,285.204 351.017,293.912 354.639,302.989 C 353.001,303.677 351.228,304.043 349.399,304.043 Z M 436.839,596.111 L 494.076,653.348 L 442.688,704.735 C 442.327,705.096 441.791,705.247 441.296,705.129 C 433.225,703.209 424.567,705.659 418.699,711.527 L 381.241,748.984 L 340.676,770.283 C 336.836,772.296 333.753,775.397 331.759,779.253 L 312.123,817.241 L 281.273,832.12 C 277.695,833.845 274.689,836.536 272.58,839.905 L 244.984,883.959 L 200.545,889.645 L 206.232,845.207 L 250.283,817.613 C 253.651,815.505 256.343,812.499 258.069,808.92 L 272.948,778.069 L 310.936,758.431 C 314.787,756.44 317.889,753.359 319.905,749.519 L 341.205,708.947 L 378.66,671.492 C 384.528,665.627 386.98,656.967 385.059,648.895 C 384.939,648.389 385.087,647.869 385.453,647.503 Z M 628.032,398.345 L 705.872,476.185 C 710.133,480.448 710.133,487.38 705.872,491.64 C 703.807,493.704 701.063,494.841 698.144,494.841 S 692.481,493.704 690.416,491.64 L 609.885,411.108 C 617.369,407.887 623.476,403.613 628.032,398.345 Z M 598.547,384.316 C 600.612,382.252 603.356,381.115 606.275,381.115 C 608.208,381.115 610.059,381.624 611.692,382.56 C 608.512,386.787 602.912,390.121 595.361,392.364 C 595.357,392.256 595.345,392.151 595.345,392.043 C 595.345,389.124 596.481,386.38 598.547,384.316 Z M 544.973,327.2 L 501.359,383.577 C 492.491,380.692 483.523,377.331 474.565,373.489 C 457.468,366.159 441.573,357.62 427.573,348.351 L 420.068,269.268 C 419.787,266.316 419.261,263.437 418.535,260.64 C 418.7,260.64 418.861,260.633 419.029,260.633 C 419.033,260.633 419.035,260.633 419.04,260.633 C 446.596,260.633 480.128,268.504 513.455,282.795 C 531.776,290.652 548.727,299.893 563.436,309.937 C 556.469,314.619 550.217,320.421 544.973,327.2 Z "/>
		</g>
	</g>
</svg>