<?xml version="1.0" encoding="UTF-8" standalone="no"?>
<!-- Created with Serif DrawPlus 12,0,4,27 (May 24, 08:37:51) (http://www.serif.com) -->
<svg version="1.1" xmlns="http://www.w3.org/2000/svg" xmlns:xlink="http://www.w3.org/1999/xlink" width="793.701" height="793.701">
	<defs>
		<linearGradient id="grad_dp_001" gradientUnits="userSpaceOnUse" x1="8.98" y1="545.769" x2="789.316" y2="551.069">
			<stop offset="0" stop-color="#13ebb5"/>
			<stop offset="1" stop-color="#137feb"/>
		</linearGradient>
		<linearGradient id="grad_dp_002" gradientUnits="userSpaceOnUse" x1="8.98" y1="545.769" x2="789.316" y2="551.069">
			<stop offset="0" stop-color="#13ebb5"/>
			<stop offset="1" stop-color="#137feb"/>
		</linearGradient>
		<linearGradient id="grad_dp_003" gradientUnits="userSpaceOnUse" x1="8.98" y1="545.769" x2="789.316" y2="551.069">
			<stop offset="0" stop-color="#13ebb5"/>
			<stop offset="1" stop-color="#137feb"/>
		</linearGradient>
		<linearGradient id="grad_dp_004" gradientUnits="userSpaceOnUse" x1="8.98" y1="545.769" x2="789.316" y2="551.069">
			<stop offset="0" stop-color="#13ebb5"/>
			<stop offset="1" stop-color="#137feb"/>
		</linearGradient>
		<linearGradient id="grad_dp_005" gradientUnits="userSpaceOnUse" x1="8.98" y1="545.769" x2="789.316" y2="551.069">
			<stop offset="0" stop-color="#13ebb5"/>
			<stop offset="1" stop-color="#137feb"/>
		</linearGradient>
		<linearGradient id="grad_dp_006" gradientUnits="userSpaceOnUse" x1="8.98" y1="545.769" x2="789.316" y2="551.069">
			<stop offset="0" stop-color="#13ebb5"/>
			<stop offset="1" stop-color="#137feb"/>
		</linearGradient>
	</defs>
	<g id="dp_group001" transform="matrix(1,0,0,1,0,-164.409)">
		<path id="dp_path002" fill="url(#grad_dp_001)" fill-rule="evenodd" d="M 105.828,495.117 L 687.875,495.117 C 691.844,495.117 695.812,493.795 698.459,489.827 C 701.104,485.859 702.427,481.889 701.104,477.921 C 662.74,340.347 538.395,243.78 396.851,243.78 S 130.961,340.347 92.5987,477.921 C 92.5987,481.889 92.5987,487.18 95.244,489.827 C 97.8907,493.795 101.859,495.117 105.828,495.117 Z M 396.851,270.237 C 519.873,270.237 630.992,350.929 669.355,468.661 L 123.024,468.661 C 162.709,350.929 273.827,270.237 396.851,270.237 Z "/>
		<path id="dp_path003" fill="url(#grad_dp_002)" fill-rule="evenodd" d="M 701.103,550.676 C 695.812,549.355 689.197,549.355 683.907,549.355 C 627.025,549.355 591.308,578.456 591.308,626.079 C 591.308,668.409 620.411,705.448 662.741,716.031 C 662.741,716.031 664.064,716.031 665.388,716.031 C 670.679,716.031 674.647,713.385 674.647,710.74 C 698.459,664.441 711.685,631.371 711.685,578.457 C 711.685,574.489 711.685,571.843 711.685,567.875 L 711.685,562.584 C 711.684,557.291 707.716,552 701.103,550.676 Z M 689.197,575.812 C 689.197,619.465 678.613,648.567 660.096,685.607 C 634.96,676.347 619.087,652.535 619.087,624.756 C 619.087,579.78 665.387,574.488 685.228,574.488 C 685.228,574.488 686.551,574.488 689.197,573.165 C 689.197,574.488 689.197,574.488 689.197,575.812 Z "/>
		<path id="dp_path004" fill="url(#grad_dp_003)" fill-rule="evenodd" d="M 398.173,723.968 C 314.835,723.968 240.755,753.071 209.007,799.369 C 205.039,805.984 206.361,813.921 211.653,817.889 C 265.889,857.575 329.385,878.74 396.851,878.74 C 462.992,878.74 527.811,857.575 583.369,817.889 C 588.661,813.921 589.984,804.663 586.016,799.369 C 554.268,753.071 480.189,723.968 398.173,723.968 Z M 396.851,852.283 C 339.969,852.283 285.732,836.408 238.111,804.66 C 269.859,771.591 330.708,750.424 396.851,750.424 C 462.992,750.424 525.165,771.589 555.591,804.66 C 507.968,836.408 453.732,852.283 396.851,852.283 Z "/>
		<path id="dp_path005" fill="url(#grad_dp_004)" fill-rule="evenodd" d="M 396.851,164.409 C 178.583,164.409 0,342.992 0,561.26 S 178.583,958.109 396.851,958.109 S 793.7,779.527 793.7,561.26 S 615.117,164.409 396.851,164.409 Z M 396.851,931.652 C 193.135,931.652 26.4573,764.976 26.4573,561.26 S 193.135,190.867 396.851,190.867 S 767.243,357.544 767.243,561.26 S 600.567,931.652 396.851,931.652 Z "/>
		<path id="dp_path006" fill="url(#grad_dp_005)" fill-rule="evenodd" d="M 107.149,532.157 C 101.859,532.157 95.244,532.157 89.9533,533.48 S 79.3707,538.771 79.3707,545.385 L 79.3707,550.676 C 79.3707,554.645 79.3707,557.291 79.3707,561.26 C 79.3707,612.851 92.5987,663.119 116.409,709.416 C 119.056,713.385 123.024,716.031 128.315,716.031 C 129.637,716.031 130.961,716.031 128.315,714.709 C 170.645,704.125 199.748,667.087 199.748,624.756 C 199.748,574.488 158.74,532.157 107.149,532.157 Z M 134.929,686.929 C 115.087,647.244 105.828,604.913 105.828,561.26 C 105.828,559.937 105.828,559.937 105.828,558.613 C 144.191,557.291 175.939,587.716 175.939,626.079 C 175.937,652.535 160.063,676.347 134.929,686.929 Z "/>
		<path id="dp_path007" fill="url(#grad_dp_006)" fill-rule="evenodd" d="M 264.568,600.945 C 264.568,639.308 321.449,667.087 396.851,667.087 S 529.133,639.308 529.133,600.945 C 529.133,562.583 472.252,534.803 396.851,534.803 S 264.568,562.583 264.568,600.945 Z M 502.677,600.945 C 502.677,616.819 461.671,640.629 396.851,640.629 C 332.032,640.629 291.023,616.819 291.023,600.945 C 291.023,585.071 332.031,561.26 396.851,561.26 C 461.669,561.26 502.677,585.071 502.677,600.945 Z "/>
	</g>
</svg>